<svg xmlns="http://www.w3.org/2000/svg" version="1.1" xmlns:xlink="http://www.w3.org/1999/xlink" xmlns:svgjs="http://svgjs.com/svgjs" width="1920" height="1080" preserveAspectRatio="none" viewBox="0 0 1920 1080"><g mask="url(&quot;#SvgjsMask1150&quot;)" fill="none"><rect width="1920" height="1080" x="0" y="0" fill="rgba(39, 37, 44, 1)"></rect><path d="M0,780.515C147.744,774.245,298.982,736.189,411.31,640.011C517.664,548.948,524.135,392.547,594.493,271.496C675.276,132.509,841.061,37.285,854.731,-122.892C868.973,-289.765,778.548,-453.033,666.99,-577.95C556.29,-701.906,397.959,-765.435,238.645,-812.752C78.927,-860.189,-89.139,-894.913,-249.639,-850.191C-411.246,-805.16,-537.231,-687.348,-651.665,-564.671C-769.708,-438.126,-928.03,-305.028,-919.398,-132.189C-910.669,42.59,-699.618,128.332,-609.56,278.377C-533.499,405.101,-548.452,581.93,-434.376,675.903C-317.048,772.555,-151.874,786.961,0,780.515" fill="#1f1e23"></path><path d="M1920 1842.614C2060.21 1820.3339999999998 2186.497 1756.888 2301.605 1673.789 2411.751 1594.272 2526.966 1505.299 2567.045 1375.496 2605.6459999999997 1250.479 2535.7309999999998 1123.519 2511.191 995 2487.9610000000002 873.342 2481.699 751.8910000000001 2426.772 640.88 2358.3 502.49300000000005 2291.928 349.74 2155.838 276.80899999999997 2010.35 198.841 1831.09 191.332 1672.35 236.58000000000004 1513.022 281.995 1348.534 374.972 1280.8899999999999 526.208 1215.29 672.875 1339.204 835.039 1332.868 995.583 1327.4859999999999 1131.951 1227.1889999999999 1252.35 1246.903 1387.393 1269.9299999999998 1545.13 1319.545 1719.5549999999998 1451.591 1808.859 1583.942 1898.3690000000001 1762.203 1867.688 1920 1842.614" fill="#2f2c35"></path></g><defs><mask id="SvgjsMask1150"><rect width="1920" height="1080" fill="#ffffff"></rect></mask></defs></svg>