<?xml version="1.0" standalone="no"?>
<!DOCTYPE svg PUBLIC "-//W3C//DTD SVG 20010904//EN"
 "http://www.w3.org/TR/2001/REC-SVG-20010904/DTD/svg10.dtd">
<svg version="1.0" xmlns="http://www.w3.org/2000/svg"
 width="500.000000pt" height="500.000000pt" viewBox="0 0 500.000000 500.000000"
 preserveAspectRatio="xMidYMid meet">
<metadata>
Created by potrace 1.11, written by Peter Selinger 2001-2013
</metadata>
<g transform="translate(0.000000,500.000000) scale(0.100000,-0.100000)"
fill="#000000" stroke="none">
<path d="M1718 3904 l-697 -1046 699 -1397 699 -1396 0 2443 c1 1343 0 2442
-1 2442 -2 0 -317 -471 -700 -1046z"/>
<path d="M2560 4822 c0 -73 -1 -530 -1 -1017 0 -487 1 -898 1 -915 l0 -30 696
0 c608 0 695 2 691 15 -5 12 -640 969 -664 1000 -5 6 -165 246 -357 535 -192
289 -353 529 -357 535 -5 5 -9 -49 -9 -123z"/>
</g>
</svg>
