<?xml version="1.0" standalone="no"?>
<!DOCTYPE svg PUBLIC "-//W3C//DTD SVG 20010904//EN"
 "http://www.w3.org/TR/2001/REC-SVG-20010904/DTD/svg10.dtd">
<svg version="1.0" xmlns="http://www.w3.org/2000/svg"
 width="500.000000pt" height="500.000000pt" viewBox="0 0 500.000000 500.000000"
 preserveAspectRatio="xMidYMid meet">
<metadata>
Created by potrace 1.14, written by Peter Selinger 2001-2017
</metadata>
<g transform="translate(0.000000,500.000000) scale(0.100000,-0.100000)"
fill="#000000" stroke="none">
<path d="M2315 4994 c-470 -48 -826 -170 -1180 -402 -165 -108 -260 -185 -401
-326 -141 -141 -218 -236 -326 -401 -209 -318 -334 -657 -390 -1060 -16 -116
-16 -494 0 -610 58 -412 185 -751 407 -1085 318 -479 800 -835 1355 -1003 245
-74 439 -102 720 -102 281 0 475 28 720 102 802 242 1431 871 1673 1673 74
245 102 439 102 720 0 281 -28 475 -102 720 -169 558 -525 1038 -1010 1360
-324 215 -665 343 -1063 400 -79 11 -436 21 -505 14z m735 -1375 c287 -429
524 -787 527 -795 4 -12 -63 -14 -468 -14 -261 0 -511 -3 -556 -7 l-83 -6 0
-1011 0 -1010 -505 1013 c-278 557 -505 1014 -505 1016 0 5 981 1481 1028
1548 19 26 36 47 38 47 2 0 238 -351 524 -781z"/>
</g>
</svg>
